<svg xmlns="http://www.w3.org/2000/svg" viewBox="0 0 1920 1080"><g transform="          rotate(213 960 540)           translate(-774.6410316532533 -435.73558030495496)          scale(1.8069177413054722)        "><rect width="1920" height="1080" fill="rgb(184, 171, 255)"></rect><g transform="translate(0, 0)"><path fill="rgb(131, 114, 218)" fill-opacity="1" d="M0,352.943L53.333,350.075C106.667,347.207,213.333,341.471,320,340.581C426.667,339.692,533.333,343.65,640,344.095C746.667,344.54,853.333,341.472,960,303.183C1066.667,264.894,1173.333,191.383,1280,185.175C1386.667,178.967,1493.333,240.06,1600,221.336C1706.667,202.612,1813.333,104.069,1866.667,54.797L1920,5.526L1920,1080L1866.667,1080C1813.333,1080,1706.667,1080,1600,1080C1493.333,1080,1386.667,1080,1280,1080C1173.333,1080,1066.667,1080,960,1080C853.333,1080,746.667,1080,640,1080C533.333,1080,426.667,1080,320,1080C213.333,1080,106.667,1080,53.333,1080L0,1080Z"></path></g><g transform="translate(0, 360)"><path fill="rgb(79, 57, 180)" fill-opacity="1" d="M0,267.624L53.333,245.702C106.667,223.78,213.333,179.937,320,139.356C426.667,98.774,533.333,61.455,640,80.719C746.667,99.983,853.333,175.829,960,189.505C1066.667,203.181,1173.333,154.687,1280,130.414C1386.667,106.141,1493.333,106.09,1600,141.274C1706.667,176.458,1813.333,246.877,1866.667,282.087L1920,317.296L1920,720L1866.667,720C1813.333,720,1706.667,720,1600,720C1493.333,720,1386.667,720,1280,720C1173.333,720,1066.667,720,960,720C853.333,720,746.667,720,640,720C533.333,720,426.667,720,320,720C213.333,720,106.667,720,53.333,720L0,720Z"></path></g><g transform="translate(0, 720)"><path fill="rgb(26, 0, 143)" fill-opacity="1" d="M0,332.96L53.333,287.285C106.667,241.611,213.333,150.263,320,112.623C426.667,74.983,533.333,91.052,640,126.273C746.667,161.493,853.333,215.866,960,254.33C1066.667,292.794,1173.333,315.35,1280,300.514C1386.667,285.679,1493.333,233.452,1600,180.313C1706.667,127.174,1813.333,73.123,1866.667,46.097L1920,19.072L1920,360L1866.667,360C1813.333,360,1706.667,360,1600,360C1493.333,360,1386.667,360,1280,360C1173.333,360,1066.667,360,960,360C853.333,360,746.667,360,640,360C533.333,360,426.667,360,320,360C213.333,360,106.667,360,53.333,360L0,360Z"></path></g></g></svg>