<svg id="visual" viewBox="0 0 900 600" width="900" height="600" xmlns="http://www.w3.org/2000/svg" xmlns:xlink="http://www.w3.org/1999/xlink" version="1.1"><rect x="0" y="0" width="900" height="600" fill="#ffffff"></rect><defs><linearGradient id="grad1_0" x1="33.3%" y1="0%" x2="100%" y2="100%"><stop offset="20%" stop-color="#4f39b4" stop-opacity="1"></stop><stop offset="80%" stop-color="#4f39b4" stop-opacity="1"></stop></linearGradient></defs><defs><linearGradient id="grad1_1" x1="33.3%" y1="0%" x2="100%" y2="100%"><stop offset="20%" stop-color="#4f39b4" stop-opacity="1"></stop><stop offset="80%" stop-color="#ffffff" stop-opacity="1"></stop></linearGradient></defs><defs><linearGradient id="grad2_0" x1="0%" y1="0%" x2="66.7%" y2="100%"><stop offset="20%" stop-color="#4f39b4" stop-opacity="1"></stop><stop offset="80%" stop-color="#4f39b4" stop-opacity="1"></stop></linearGradient></defs><defs><linearGradient id="grad2_1" x1="0%" y1="0%" x2="66.7%" y2="100%"><stop offset="20%" stop-color="#ffffff" stop-opacity="1"></stop><stop offset="80%" stop-color="#4f39b4" stop-opacity="1"></stop></linearGradient></defs><g transform="translate(900, 0)"><path d="M0 378.6C-58.8 356.5 -117.7 334.5 -176.5 305.7C-235.3 276.9 -294.2 241.4 -327.9 189.3C-361.5 137.2 -370.1 68.6 -378.6 0L0 0Z" fill="#ad98db"></path><path d="M0 189.3C-29.4 178.3 -58.8 167.3 -88.2 152.9C-117.7 138.5 -147.1 120.7 -163.9 94.6C-180.8 68.6 -185 34.3 -189.3 0L0 0Z" fill="#4f39b4"></path></g><g transform="translate(0, 600)"><path d="M0 -378.6C60.2 -358.9 120.3 -339.1 179 -310C237.7 -281 294.8 -242.5 327.9 -189.3C360.9 -136.1 369.7 -68 378.6 0L0 0Z" fill="#ad98db"></path><path d="M0 -189.3C30.1 -179.4 60.2 -169.6 89.5 -155C118.8 -140.5 147.4 -121.3 163.9 -94.6C180.4 -68 184.9 -34 189.3 0L0 0Z" fill="#4f39b4"></path></g></svg>